<svg width="251" height="30" viewBox="0 0 251 30" fill="none" xmlns="http://www.w3.org/2000/svg">
<path d="M2 5.82355L2 24.1765" stroke="#4760F0" stroke-width="3" stroke-linecap="round"/>
<path d="M8.33301 2L8.33301 28" stroke="#4760F0" stroke-width="3" stroke-linecap="round"/>
<path d="M14.6665 8.88232L14.6665 21.8823" stroke="#4760F0" stroke-width="3" stroke-linecap="round"/>
<path d="M20.9995 5.05884L20.9995 25.7059" stroke="#4760F0" stroke-width="3" stroke-linecap="round"/>
<path d="M27.333 2L27.333 28" stroke="#4760F0" stroke-width="3" stroke-linecap="round"/>
<path d="M33.6665 8.88232L33.6665 21.8823" stroke="#4760F0" stroke-width="3" stroke-linecap="round"/>
<path d="M40 9.64697L40 20.3529" stroke="#4760F0" stroke-width="3" stroke-linecap="round"/>
<path d="M46.333 11.9412L46.333 18.0588" stroke="#4760F0" stroke-width="3" stroke-linecap="round"/>
<path d="M52.6665 5.82349L52.6665 24.9411" stroke="#4760F0" stroke-width="3" stroke-linecap="round"/>
<path d="M58.9995 8.11768L58.9995 22.6471" stroke="#4760F0" stroke-width="3" stroke-linecap="round"/>
<path d="M65.3335 12.7058L65.3335 18.0588" stroke="#4760F0" stroke-width="3" stroke-linecap="round"/>
<path d="M71.6665 11.1765L71.6665 18.8236" stroke="#4760F0" stroke-width="3" stroke-linecap="round"/>
<path d="M78 8.88232L78 21.8823" stroke="#4760F0" stroke-width="3" stroke-linecap="round"/>
<path d="M84.333 6.58813L84.333 23.4117" stroke="#4760F0" stroke-width="3" stroke-linecap="round"/>
<path d="M90.6665 2L90.6665 28" stroke="#4760F0" stroke-width="3" stroke-linecap="round"/>
<path d="M97 7.35303L97 23.4118" stroke="#4760F0" stroke-width="3" stroke-linecap="round"/>
<path d="M103.333 7.35303L103.333 22.6471" stroke="#4760F0" stroke-width="3" stroke-linecap="round"/>
<path d="M109.667 10.4119L109.667 20.353" stroke="#4760F0" stroke-width="3" stroke-linecap="round"/>
<path d="M116 6.58813L116 23.4117" stroke="#4760F0" stroke-width="3" stroke-linecap="round"/>
<path d="M122.333 2L122.333 28" stroke="#4760F0" stroke-width="3" stroke-linecap="round"/>
<path d="M128.667 8.88232L128.667 21.8823" stroke="#4760F0" stroke-width="3" stroke-linecap="round"/>
<path d="M135 7.35303L135 22.6471" stroke="#4760F0" stroke-width="3" stroke-linecap="round"/>
<path d="M141.333 11.1765L141.333 18.8236" stroke="#4760F0" stroke-width="3" stroke-linecap="round"/>
<path d="M147.667 10.4119L147.667 20.353" stroke="#4760F0" stroke-width="3" stroke-linecap="round"/>
<path d="M154 11.9412L154 18.0588" stroke="#4760F0" stroke-width="3" stroke-linecap="round"/>
<path d="M160.333 11.9412L160.333 18.0588" stroke="#4760F0" stroke-width="3" stroke-linecap="round"/>
<path d="M166.667 13.4707L166.667 16.5295" stroke="#4760F0" stroke-width="3" stroke-linecap="round"/>
<path d="M173 12.7058L173 18.0588" stroke="#4760F0" stroke-width="3" stroke-linecap="round"/>
<path d="M179.333 5.82355L179.333 24.1765" stroke="#4760F0" stroke-width="3" stroke-linecap="round"/>
<path d="M185.667 2L185.667 28" stroke="#4760F0" stroke-width="3" stroke-linecap="round"/>
<path d="M192 8.88232L192 21.8823" stroke="#4760F0" stroke-width="3" stroke-linecap="round"/>
<path d="M198.334 5.05884L198.334 25.7059" stroke="#4760F0" stroke-width="3" stroke-linecap="round"/>
<path d="M204.667 2L204.667 28" stroke="#4760F0" stroke-width="3" stroke-linecap="round"/>
<path d="M211 8.88232L211 21.8823" stroke="#4760F0" stroke-width="3" stroke-linecap="round"/>
<path d="M217.333 9.64697L217.333 20.3529" stroke="#4760F0" stroke-width="3" stroke-linecap="round"/>
<path d="M223.667 11.9412L223.667 18.0588" stroke="#4760F0" stroke-width="3" stroke-linecap="round"/>
<path d="M230 5.82349L230 24.9411" stroke="#4760F0" stroke-width="3" stroke-linecap="round"/>
<path d="M236.334 8.11768L236.334 22.6471" stroke="#4760F0" stroke-width="3" stroke-linecap="round"/>
<path d="M242.667 12.7058L242.667 18.0588" stroke="#4760F0" stroke-width="3" stroke-linecap="round"/>
<path d="M249 11.1765L249 18.8236" stroke="#4760F0" stroke-width="3" stroke-linecap="round"/>
</svg>
