<svg width="25" height="24" viewBox="0 0 25 24" fill="none" xmlns="http://www.w3.org/2000/svg">
    <path d="M4.13605 11.293C3.94858 11.4806 3.84326 11.7349 3.84326 12C3.84326 12.2652 3.94858 12.5195 4.13605 12.707L9.79305 18.364C9.8853 18.4595 9.99564 18.5357 10.1176 18.5881C10.2396 18.6405 10.3709 18.6681 10.5036 18.6693C10.6364 18.6704 10.7681 18.6451 10.891 18.5948C11.0139 18.5446 11.1256 18.4703 11.2194 18.3764C11.3133 18.2825 11.3876 18.1709 11.4379 18.048C11.4882 17.9251 11.5135 17.7934 11.5123 17.6606C11.5111 17.5278 11.4836 17.3966 11.4311 17.2746C11.3787 17.1526 11.3026 17.0423 11.207 16.95L7.25705 13L20.5 13C20.7653 13 21.0196 12.8947 21.2072 12.7071C21.3947 12.5196 21.5 12.2652 21.5 12C21.5 11.7348 21.3947 11.4805 21.2072 11.2929C21.0196 11.1054 20.7653 11 20.5 11L7.25705 11L11.207 7.05002C11.3892 6.86142 11.49 6.60882 11.4877 6.34662C11.4854 6.08443 11.3803 5.83361 11.1949 5.6482C11.0095 5.4628 10.7586 5.35763 10.4964 5.35535C10.2343 5.35307 9.98165 5.45386 9.79305 5.63602L4.13605 11.293Z" fill="black"/>
</svg>
