<svg width="32" height="32" viewBox="0 0 32 32" fill="none" xmlns="http://www.w3.org/2000/svg">
<circle cx="16" cy="16" r="16" fill="#4760F0"/>
<path d="M12.7141 9.63383C12.6308 9.58445 12.5359 9.558 12.4391 9.55715C12.3423 9.5563 12.247 9.5811 12.1628 9.62902C12.0787 9.67694 12.0087 9.74627 11.9601 9.82998C11.9114 9.91368 11.8858 10.0088 11.8857 10.1056V22.8087C11.8858 22.9055 11.9114 23.0006 11.9601 23.0843C12.0087 23.168 12.0787 23.2374 12.1628 23.2853C12.247 23.3332 12.3423 23.358 12.4391 23.3571C12.5359 23.3563 12.6308 23.3298 12.7141 23.2805L23.4323 16.9289C23.5141 16.8803 23.5819 16.8113 23.629 16.7286C23.6761 16.6459 23.7009 16.5523 23.7009 16.4571C23.7009 16.362 23.6761 16.2684 23.629 16.1857C23.5819 16.103 23.5141 16.0339 23.4323 15.9854L12.7141 9.63383Z" fill="white" stroke="white" stroke-width="1.5" stroke-linecap="round" stroke-linejoin="round"/>
</svg>
