<svg width="193" height="30" viewBox="0 0 193 30" fill="none" xmlns="http://www.w3.org/2000/svg">
<path d="M2 5.82373L2 24.1767" stroke="#ABABAB" stroke-width="3" stroke-linecap="round"/>
<path d="M9 2L9 28" stroke="#ABABAB" stroke-width="3" stroke-linecap="round"/>
<path d="M16 8.88232L16 21.8823" stroke="#ABABAB" stroke-width="3" stroke-linecap="round"/>
<path d="M23 5.05884L23 25.7059" stroke="#ABABAB" stroke-width="3" stroke-linecap="round"/>
<path d="M30 2L30 28" stroke="#ABABAB" stroke-width="3" stroke-linecap="round"/>
<path d="M37 8.88232L37 21.8823" stroke="#ABABAB" stroke-width="3" stroke-linecap="round"/>
<path d="M44 9.64697L44 20.3529" stroke="#ABABAB" stroke-width="3" stroke-linecap="round"/>
<path d="M51 11.9412L51 18.0588" stroke="#ABABAB" stroke-width="3" stroke-linecap="round"/>
<path d="M58 5.82373L58 24.9414" stroke="#ABABAB" stroke-width="3" stroke-linecap="round"/>
<path d="M65 8.11768L65 22.6471" stroke="#ABABAB" stroke-width="3" stroke-linecap="round"/>
<path d="M72 12.7061L72 18.059" stroke="#ABABAB" stroke-width="3" stroke-linecap="round"/>
<path d="M79 11.1763L79 18.8233" stroke="#ABABAB" stroke-width="3" stroke-linecap="round"/>
<path d="M86 8.88232L86 21.8823" stroke="#ABABAB" stroke-width="3" stroke-linecap="round"/>
<path d="M93 6.58838L93 23.4119" stroke="#ABABAB" stroke-width="3" stroke-linecap="round"/>
<path d="M100 2L100 28" stroke="#ABABAB" stroke-width="3" stroke-linecap="round"/>
<path d="M107 7.35303L107 23.4119" stroke="#ABABAB" stroke-width="3" stroke-linecap="round"/>
<path d="M114 7.35303L114 22.6471" stroke="#ABABAB" stroke-width="3" stroke-linecap="round"/>
<path d="M121 10.4116L121 20.3528" stroke="#ABABAB" stroke-width="3" stroke-linecap="round"/>
<path d="M128 6.58838L128 23.4119" stroke="#ABABAB" stroke-width="3" stroke-linecap="round"/>
<path d="M135 2L135 28" stroke="#ABABAB" stroke-width="3" stroke-linecap="round"/>
<path d="M142 8.88232L142 21.8823" stroke="#ABABAB" stroke-width="3" stroke-linecap="round"/>
<path d="M149 7.35303L149 22.6471" stroke="#ABABAB" stroke-width="3" stroke-linecap="round"/>
<path d="M156 11.1763L156 18.8233" stroke="#ABABAB" stroke-width="3" stroke-linecap="round"/>
<path d="M163 10.4116L163 20.3528" stroke="#ABABAB" stroke-width="3" stroke-linecap="round"/>
<path d="M170 11.9412L170 18.0588" stroke="#ABABAB" stroke-width="3" stroke-linecap="round"/>
<path d="M177 11.9412L177 18.0588" stroke="#ABABAB" stroke-width="3" stroke-linecap="round"/>
<path d="M184 13.4707L184 16.5295" stroke="#ABABAB" stroke-width="3" stroke-linecap="round"/>
<path d="M191 12.7061L191 18.059" stroke="#ABABAB" stroke-width="3" stroke-linecap="round"/>
</svg>
