<svg width="24" height="28" viewBox="0 0 24 28" fill="none" xmlns="http://www.w3.org/2000/svg">
<path d="M1.33337 7.33333H22.6667M9.33337 12.6667V20.6667M14.6667 12.6667V20.6667M2.66671 7.33333L4.00004 23.3333C4.00004 24.0406 4.28099 24.7189 4.78109 25.219C5.28119 25.719 5.95946 26 6.66671 26H17.3334C18.0406 26 18.7189 25.719 19.219 25.219C19.7191 24.7189 20 24.0406 20 23.3333L21.3334 7.33333M8.00004 7.33333V3.33333C8.00004 2.97971 8.14052 2.64057 8.39057 2.39052C8.64061 2.14048 8.97975 2 9.33337 2H14.6667C15.0203 2 15.3595 2.14048 15.6095 2.39052C15.8596 2.64057 16 2.97971 16 3.33333V7.33333" stroke="#DEDEDE" stroke-width="2.66667" stroke-linecap="round" stroke-linejoin="round"/>
</svg>
