<svg width="257" height="30" viewBox="0 0 257 30" fill="none" xmlns="http://www.w3.org/2000/svg">
    <path d="M2 5.82355L2 24.1765" stroke="#ABABAB" stroke-width="3" stroke-linecap="round"/>
    <path d="M8.48682 2L8.48682 28" stroke="#ABABAB" stroke-width="3" stroke-linecap="round"/>
    <path d="M14.9741 8.88232L14.9741 21.8823" stroke="#ABABAB" stroke-width="3" stroke-linecap="round"/>
    <path d="M21.4614 5.05884L21.4614 25.7059" stroke="#ABABAB" stroke-width="3" stroke-linecap="round"/>
    <path d="M27.9487 2L27.9487 28" stroke="#ABABAB" stroke-width="3" stroke-linecap="round"/>
    <path d="M34.4355 8.88232L34.4355 21.8823" stroke="#ABABAB" stroke-width="3" stroke-linecap="round"/>
    <path d="M40.9229 9.64697L40.9229 20.3529" stroke="#ABABAB" stroke-width="3" stroke-linecap="round"/>
    <path d="M47.4102 11.9412L47.4102 18.0588" stroke="#ABABAB" stroke-width="3" stroke-linecap="round"/>
    <path d="M53.897 5.82349L53.897 24.9411" stroke="#ABABAB" stroke-width="3" stroke-linecap="round"/>
    <path d="M60.3843 8.11768L60.3843 22.6471" stroke="#ABABAB" stroke-width="3" stroke-linecap="round"/>
    <path d="M66.8721 12.7058L66.8721 18.0588" stroke="#ABABAB" stroke-width="3" stroke-linecap="round"/>
    <path d="M73.3589 11.1765L73.3589 18.8236" stroke="#ABABAB" stroke-width="3" stroke-linecap="round"/>
    <path d="M79.8462 8.88232L79.8462 21.8823" stroke="#ABABAB" stroke-width="3" stroke-linecap="round"/>
    <path d="M86.333 6.58813L86.333 23.4117" stroke="#ABABAB" stroke-width="3" stroke-linecap="round"/>
    <path d="M92.8203 2L92.8203 28" stroke="#ABABAB" stroke-width="3" stroke-linecap="round"/>
    <path d="M99.3071 7.35303L99.3071 23.4118" stroke="#ABABAB" stroke-width="3" stroke-linecap="round"/>
    <path d="M105.794 7.35303L105.794 22.6471" stroke="#ABABAB" stroke-width="3" stroke-linecap="round"/>
    <path d="M112.282 10.4119L112.282 20.353" stroke="#ABABAB" stroke-width="3" stroke-linecap="round"/>
    <path d="M118.769 6.58813L118.769 23.4117" stroke="#ABABAB" stroke-width="3" stroke-linecap="round"/>
    <path d="M125.257 2L125.257 28" stroke="#ABABAB" stroke-width="3" stroke-linecap="round"/>
    <path d="M131.743 8.88232L131.743 21.8823" stroke="#ABABAB" stroke-width="3" stroke-linecap="round"/>
    <path d="M138.231 7.35303L138.231 22.6471" stroke="#ABABAB" stroke-width="3" stroke-linecap="round"/>
    <path d="M144.718 11.1765L144.718 18.8236" stroke="#ABABAB" stroke-width="3" stroke-linecap="round"/>
    <path d="M151.206 10.4119L151.206 20.353" stroke="#ABABAB" stroke-width="3" stroke-linecap="round"/>
    <path d="M157.692 11.9412L157.692 18.0588" stroke="#ABABAB" stroke-width="3" stroke-linecap="round"/>
    <path d="M164.18 11.9412L164.18 18.0588" stroke="#ABABAB" stroke-width="3" stroke-linecap="round"/>
    <path d="M170.667 13.4707L170.667 16.5295" stroke="#ABABAB" stroke-width="3" stroke-linecap="round"/>
    <path d="M177.154 12.7058L177.154 18.0588" stroke="#ABABAB" stroke-width="3" stroke-linecap="round"/>
    <path d="M183.641 5.82355L183.641 24.1765" stroke="#ABABAB" stroke-width="3" stroke-linecap="round"/>
    <path d="M190.128 2L190.128 28" stroke="#ABABAB" stroke-width="3" stroke-linecap="round"/>
    <path d="M196.616 8.88232L196.616 21.8823" stroke="#ABABAB" stroke-width="3" stroke-linecap="round"/>
    <path d="M203.103 5.05884L203.103 25.7059" stroke="#ABABAB" stroke-width="3" stroke-linecap="round"/>
    <path d="M209.59 2L209.59 28" stroke="#ABABAB" stroke-width="3" stroke-linecap="round"/>
    <path d="M216.077 8.88232L216.077 21.8823" stroke="#ABABAB" stroke-width="3" stroke-linecap="round"/>
    <path d="M222.564 9.64697L222.564 20.3529" stroke="#ABABAB" stroke-width="3" stroke-linecap="round"/>
    <path d="M229.051 11.9412L229.051 18.0588" stroke="#ABABAB" stroke-width="3" stroke-linecap="round"/>
    <path d="M235.539 5.82349L235.539 24.9411" stroke="#ABABAB" stroke-width="3" stroke-linecap="round"/>
    <path d="M242.026 8.11768L242.026 22.6471" stroke="#ABABAB" stroke-width="3" stroke-linecap="round"/>
    <path d="M248.513 12.7058L248.513 18.0588" stroke="#ABABAB" stroke-width="3" stroke-linecap="round"/>
    <path d="M255 11.1765L255 18.8236" stroke="#ABABAB" stroke-width="3" stroke-linecap="round"/>
</svg>
