<svg width="23" height="27" viewBox="0 0 23 27" fill="none" xmlns="http://www.w3.org/2000/svg">
<path d="M22.52 21H20.67L19.53 17.63H13.38L12.25 21H10.4L15.22 6.6H17.7L22.52 21ZM16.44 8.47L13.94 15.96H18.97L16.44 8.47Z" fill="#8B8B8B"/>
<g clip-path="url(#clip0_933_425)">
<path d="M10.1822 14.3535C10.276 14.2597 10.3286 14.1326 10.3286 14C10.3286 13.8674 10.276 13.7403 10.1822 13.6465L7.35372 10.818C7.3076 10.7702 7.25242 10.7321 7.19142 10.7059C7.13042 10.6797 7.06481 10.6659 6.99842 10.6654C6.93203 10.6648 6.86619 10.6774 6.80474 10.7026C6.74329 10.7277 6.68747 10.7648 6.64052 10.8118C6.59358 10.8587 6.55645 10.9146 6.53131 10.976C6.50617 11.0375 6.49352 11.1033 6.49409 11.1697C6.49467 11.2361 6.50846 11.3017 6.53467 11.3627C6.56087 11.4237 6.59896 11.4789 6.64672 11.525L8.62172 13.5L2.00022 13.5C1.86761 13.5 1.74043 13.5527 1.64667 13.6464C1.5529 13.7402 1.50022 13.8674 1.50022 14C1.50022 14.1326 1.5529 14.2598 1.64667 14.3535C1.74043 14.4473 1.86761 14.5 2.00022 14.5L8.62172 14.5L6.64672 16.475C6.55564 16.5693 6.50524 16.6956 6.50638 16.8267C6.50752 16.9578 6.56011 17.0832 6.65281 17.1759C6.74551 17.2686 6.87092 17.3212 7.00202 17.3223C7.13312 17.3235 7.25942 17.2731 7.35372 17.182L10.1822 14.3535Z" fill="#8B8B8B"/>
</g>
<defs>
<clipPath id="clip0_933_425">
<rect width="12" height="12" fill="white" transform="translate(12 8) rotate(90)"/>
</clipPath>
</defs>
</svg>
