<svg width="25" height="24" viewBox="0 0 25 24" fill="none" xmlns="http://www.w3.org/2000/svg">
    <path d="M20.864 12.707C21.0514 12.5195 21.1567 12.2652 21.1567 12C21.1567 11.7348 21.0514 11.4805 20.864 11.293L15.207 5.63601C15.1147 5.5405 15.0044 5.46431 14.8824 5.41191C14.7604 5.3595 14.6291 5.33191 14.4964 5.33076C14.3636 5.3296 14.2319 5.3549 14.109 5.40519C13.9861 5.45547 13.8744 5.52972 13.7806 5.62361C13.6867 5.7175 13.6124 5.82916 13.5621 5.95205C13.5118 6.07495 13.4865 6.20663 13.4877 6.33941C13.4889 6.47219 13.5164 6.60341 13.5688 6.72541C13.6213 6.84742 13.6974 6.95776 13.793 7.05001L17.743 11L4.49995 11C4.23474 11 3.98038 11.1054 3.79284 11.2929C3.60531 11.4804 3.49995 11.7348 3.49995 12C3.49995 12.2652 3.60531 12.5196 3.79284 12.7071C3.98038 12.8946 4.23474 13 4.49995 13L17.743 13L13.793 16.95C13.6108 17.1386 13.51 17.3912 13.5123 17.6534C13.5146 17.9156 13.6197 18.1664 13.8051 18.3518C13.9905 18.5372 14.2414 18.6424 14.5036 18.6447C14.7657 18.647 15.0183 18.5462 15.207 18.364L20.864 12.707Z" fill="white"/>
</svg>
